<svg width="40" height="40" viewBox="0 0 40 40" fill="none" xmlns="http://www.w3.org/2000/svg">
<rect x="0.5" y="0.5" width="39" height="39" rx="19.5" stroke="#7F7F7F" stroke-linejoin="round" stroke-dasharray="2 2"/>
<path d="M28.05 18.6301L23.38 16.6201L22.34 16.1801C22.18 16.1001 22.04 15.8901 22.04 15.7101V12.6501C22.04 11.6901 21.33 10.5501 20.47 10.1101C20.17 9.96006 19.81 9.96006 19.51 10.1101C18.66 10.5501 17.95 11.7001 17.95 12.6601V15.7201C17.95 15.9001 17.81 16.1101 17.65 16.1901L11.95 18.6401C11.32 18.9001 10.81 19.6901 10.81 20.3701V21.6901C10.81 22.5401 11.45 22.9601 12.24 22.6201L17.25 20.4601C17.64 20.2901 17.96 20.5001 17.96 20.9301V22.0401V23.8401C17.96 24.0701 17.83 24.4001 17.67 24.5601L15.35 26.8901C15.11 27.1301 15 27.6001 15.11 27.9401L15.56 29.3001C15.74 29.8901 16.41 30.1701 16.96 29.8901L19.34 27.8901C19.7 27.5801 20.29 27.5801 20.65 27.8901L23.03 29.8901C23.58 30.1601 24.25 29.8901 24.45 29.3001L24.9 27.9401C25.01 27.6101 24.9 27.1301 24.66 26.8901L22.34 24.5601C22.17 24.4001 22.04 24.0701 22.04 23.8401V20.9301C22.04 20.5001 22.35 20.3001 22.75 20.4601L27.76 22.6201C28.55 22.9601 29.19 22.5401 29.19 21.6901V20.3701C29.19 19.6901 28.68 18.9001 28.05 18.6301Z" fill="#7F7F7F"/>
</svg>
