<svg width="100" height="50" viewBox="0 0 100 50" fill="none" xmlns="http://www.w3.org/2000/svg">
<path d="M83.7292 4.16669H66.2708C58.6875 4.16669 54.1667 8.68752 54.1667 16.2709V33.7084C54.1667 41.3125 58.6875 45.8334 66.2708 45.8334H83.7083C91.2917 45.8334 95.8125 41.3125 95.8125 33.7292V16.2709C95.8333 8.68752 91.3125 4.16669 83.7292 4.16669ZM80.8125 26.1042L73.4583 33.4584C73.1458 33.7709 72.75 33.9167 72.3542 33.9167C71.9583 33.9167 71.5625 33.7709 71.25 33.4584C70.6458 32.8542 70.6458 31.8542 71.25 31.25L77.5 25L71.25 18.75C70.6458 18.1459 70.6458 17.1459 71.25 16.5417C71.8542 15.9375 72.8542 15.9375 73.4583 16.5417L80.8125 23.8959C81.4375 24.5 81.4375 25.5 80.8125 26.1042Z" fill="#177BA5"/>
<path d="M33.7292 4.16669H16.2708C8.68749 4.16669 4.16666 8.68752 4.16666 16.2709V33.7084C4.16666 41.3125 8.68749 45.8334 16.2708 45.8334H33.7083C41.2917 45.8334 45.8125 41.3125 45.8125 33.7292V16.2709C45.8333 8.68752 41.3125 4.16669 33.7292 4.16669ZM28.7292 31.25C29.3333 31.8542 29.3333 32.8542 28.7292 33.4584C28.4167 33.7709 28.0208 33.9167 27.625 33.9167C27.2292 33.9167 26.8333 33.7709 26.5208 33.4584L19.1667 26.1042C18.5625 25.5 18.5625 24.5 19.1667 23.8959L26.5208 16.5417C27.125 15.9375 28.125 15.9375 28.7292 16.5417C29.3333 17.1459 29.3333 18.1459 28.7292 18.75L22.4792 25L28.7292 31.25Z" fill="#292D32" fill-opacity="0.5"/>
</svg>
