<svg width="211" height="24" viewBox="0 0 211 24" fill="none" xmlns="http://www.w3.org/2000/svg">
<g clip-path="url(#clip0_0_243)">
<path d="M16.19 2H7.81C4.17 2 2 4.17 2 7.81V16.18C2 19.83 4.17 22 7.81 22H16.18C19.82 22 21.99 19.83 21.99 16.19V7.81C22 4.17 19.83 2 16.19 2ZM11.5 17.25C11.5 17.61 11.14 17.85 10.81 17.71C9.6 17.19 8.02 16.71 6.92 16.57L6.73 16.55C6.12 16.47 5.62 15.9 5.62 15.28V7.58C5.62 6.81 6.24 6.24 7 6.3C8.25 6.4 10.1 7 11.26 7.66C11.42 7.75 11.5 7.92 11.5 8.09V17.25ZM18.38 15.27C18.38 15.89 17.88 16.46 17.27 16.54L17.06 16.56C15.97 16.71 14.4 17.18 13.19 17.69C12.86 17.83 12.5 17.59 12.5 17.23V8.08C12.5 7.9 12.59 7.73 12.75 7.64C13.91 6.99 15.72 6.41 16.95 6.3H16.99C17.76 6.3 18.38 6.92 18.38 7.69V15.27Z" fill="#292D32"/>
<path d="M53.59 2H45.21C41.57 2 39.4 4.17 39.4 7.81V16.18C39.4 19.83 41.57 22 45.21 22H53.58C57.22 22 59.39 19.83 59.39 16.19V7.81C59.4 4.17 57.23 2 53.59 2ZM48.9 17.25C48.9 17.61 48.54 17.85 48.21 17.71C47 17.19 45.42 16.71 44.32 16.57L44.13 16.55C43.52 16.47 43.02 15.9 43.02 15.28V7.58C43.02 6.81 43.64 6.24 44.4 6.3C45.65 6.4 47.5 7 48.66 7.66C48.82 7.75 48.9 7.92 48.9 8.09V17.25ZM55.78 15.27C55.78 15.89 55.28 16.46 54.67 16.54L54.46 16.56C53.37 16.71 51.8 17.18 50.59 17.69C50.26 17.83 49.9 17.59 49.9 17.23V8.08C49.9 7.9 49.99 7.73 50.15 7.64C51.31 6.99 53.12 6.41 54.35 6.3H54.39C55.16 6.3 55.78 6.92 55.78 7.69V15.27Z" fill="#292D32"/>
<path d="M90.99 2H82.61C78.97 2 76.8 4.17 76.8 7.81V16.18C76.8 19.83 78.97 22 82.61 22H90.98C94.62 22 96.79 19.83 96.79 16.19V7.81C96.8 4.17 94.63 2 90.99 2ZM86.3 17.25C86.3 17.61 85.94 17.85 85.61 17.71C84.4 17.19 82.82 16.71 81.72 16.57L81.53 16.55C80.92 16.47 80.42 15.9 80.42 15.28V7.58C80.42 6.81 81.04 6.24 81.8 6.3C83.05 6.4 84.9 7 86.06 7.66C86.22 7.75 86.3 7.92 86.3 8.09V17.25ZM93.18 15.27C93.18 15.89 92.68 16.46 92.07 16.54L91.86 16.56C90.77 16.71 89.2 17.18 87.99 17.69C87.66 17.83 87.3 17.59 87.3 17.23V8.08C87.3 7.9 87.39 7.73 87.55 7.64C88.71 6.99 90.52 6.41 91.75 6.3H91.79C92.56 6.3 93.18 6.92 93.18 7.69V15.27Z" fill="#292D32"/>
<path d="M128.39 2H120.01C116.37 2 114.2 4.17 114.2 7.81V16.18C114.2 19.83 116.37 22 120.01 22H128.38C132.02 22 134.19 19.83 134.19 16.19V7.81C134.2 4.17 132.03 2 128.39 2ZM123.7 17.25C123.7 17.61 123.34 17.85 123.01 17.71C121.8 17.19 120.22 16.71 119.12 16.57L118.93 16.55C118.32 16.47 117.82 15.9 117.82 15.28V7.58C117.82 6.81 118.44 6.24 119.2 6.3C120.45 6.4 122.3 7 123.46 7.66C123.62 7.75 123.7 7.92 123.7 8.09V17.25ZM130.58 15.27C130.58 15.89 130.08 16.46 129.47 16.54L129.26 16.56C128.17 16.71 126.6 17.18 125.39 17.69C125.06 17.83 124.7 17.59 124.7 17.23V8.08C124.7 7.9 124.79 7.73 124.95 7.64C126.11 6.99 127.92 6.41 129.15 6.3H129.19C129.96 6.3 130.58 6.92 130.58 7.69V15.27Z" fill="#292D32"/>
<path d="M165.79 2H157.41C153.77 2 151.6 4.17 151.6 7.81V16.18C151.6 19.83 153.77 22 157.41 22H165.78C169.42 22 171.59 19.83 171.59 16.19V7.81C171.6 4.17 169.43 2 165.79 2ZM161.1 17.25C161.1 17.61 160.74 17.85 160.41 17.71C159.2 17.19 157.62 16.71 156.52 16.57L156.33 16.55C155.72 16.47 155.22 15.9 155.22 15.28V7.58C155.22 6.81 155.84 6.24 156.6 6.3C157.85 6.4 159.7 7 160.86 7.66C161.02 7.75 161.1 7.92 161.1 8.09V17.25ZM167.98 15.27C167.98 15.89 167.48 16.46 166.87 16.54L166.66 16.56C165.57 16.71 164 17.18 162.79 17.69C162.46 17.83 162.1 17.59 162.1 17.23V8.08C162.1 7.9 162.19 7.73 162.35 7.64C163.51 6.99 165.32 6.41 166.55 6.3H166.59C167.36 6.3 167.98 6.92 167.98 7.69V15.27Z" fill="#292D32"/>
<path d="M203.19 2H194.81C191.17 2 189 4.17 189 7.81V16.18C189 19.83 191.17 22 194.81 22H203.18C206.82 22 208.99 19.83 208.99 16.19V7.81C209 4.17 206.83 2 203.19 2ZM198.5 17.25C198.5 17.61 198.14 17.85 197.81 17.71C196.6 17.19 195.02 16.71 193.92 16.57L193.73 16.55C193.12 16.47 192.62 15.9 192.62 15.28V7.58C192.62 6.81 193.24 6.24 194 6.3C195.25 6.4 197.1 7 198.26 7.66C198.42 7.75 198.5 7.92 198.5 8.09V17.25ZM205.38 15.27C205.38 15.89 204.88 16.46 204.27 16.54L204.06 16.56C202.97 16.71 201.4 17.18 200.19 17.69C199.86 17.83 199.5 17.59 199.5 17.23V8.08C199.5 7.9 199.59 7.73 199.75 7.64C200.91 6.99 202.72 6.41 203.95 6.3H203.99C204.76 6.3 205.38 6.92 205.38 7.69V15.27Z" fill="#292D32"/>
</g>
<defs>
<clipPath id="clip0_0_243">
<rect width="211" height="24" fill="white"/>
</clipPath>
</defs>
</svg>
